<svg width="520" height="320" viewBox="0 0 520 320" fill="none" xmlns="http://www.w3.org/2000/svg">
  <rect width="520" height="320" rx="24" fill="#0F172A"/>
  <rect x="28" y="24" width="464" height="272" rx="18" fill="#111827" stroke="#334155" stroke-width="2"/>
  <rect x="48" y="44" width="120" height="12" rx="6" fill="#3B82F6"/>
  <rect x="48" y="72" width="200" height="10" rx="5" fill="#475569"/>
  <rect x="48" y="92" width="160" height="10" rx="5" fill="#475569"/>
  <rect x="48" y="132" width="140" height="92" rx="14" fill="#1E293B"/>
  <path d="M78 188L104 162L78 136" stroke="#3B82F6" stroke-width="10" stroke-linecap="round" stroke-linejoin="round"/>
  <path d="M122 188H148" stroke="#F8FAFC" stroke-width="10" stroke-linecap="round"/>
  <rect x="220" y="132" width="250" height="92" rx="14" fill="#1E293B"/>
  <path d="M250 182H410" stroke="#22C55E" stroke-width="10" stroke-linecap="round"/>
  <path d="M250 208H372" stroke="#94A3B8" stroke-width="10" stroke-linecap="round"/>
  <rect x="48" y="244" width="422" height="28" rx="14" fill="#0F172A"/>
  <path d="M70 258H174" stroke="#3B82F6" stroke-width="8" stroke-linecap="round"/>
  <circle cx="430" cy="258" r="16" fill="#22C55E"/>
</svg>
